<svg xmlns="http://www.w3.org/2000/svg" xmlns:xlink="http://www.w3.org/1999/xlink" width="1920" zoomAndPan="magnify" viewBox="0 0 1440 809.999993" height="1080" preserveAspectRatio="xMidYMid meet" version="1.0"><defs><clipPath id="dc15b22ca9"><path d="M 441 87 L 532 87 L 532 151 L 441 151 Z M 441 87 " clip-rule="nonzero"/></clipPath><clipPath id="04c7bbf121"><path d="M 915 531 L 1030 531 L 1030 723 L 915 723 Z M 915 531 " clip-rule="nonzero"/></clipPath><clipPath id="f15ac80edf"><path d="M 174 571 L 242 571 L 242 723 L 174 723 Z M 174 571 " clip-rule="nonzero"/></clipPath><clipPath id="3426a96554"><path d="M 174 594 L 1038 594 L 1038 723 L 174 723 Z M 174 594 " clip-rule="nonzero"/></clipPath></defs><path fill="#38b6ff" d="M 450.226562 142.898438 C 449.535156 129.621094 447.976562 124.445312 452.21875 115.496094 C 459.621094 99.882812 475.96875 87.738281 482.890625 88.941406 C 493.777344 90.835938 492.832031 97.9375 501.355469 106.929688 C 509.875 115.921875 523.605469 137.691406 523.605469 137.691406 Z M 450.226562 142.898438 " fill-opacity="1" fill-rule="nonzero"/><g clip-path="url(#dc15b22ca9)"><path stroke-linecap="butt" transform="matrix(1.325532, 0, 0, 1.325276, 157.189642, -205.753446)" fill="none" stroke-linejoin="miter" d="M 221.071157 263.078697 C 220.54955 253.060148 219.373725 249.154711 222.574091 242.40199 C 228.158523 230.620836 240.491423 221.457061 245.713383 222.36489 C 253.926476 223.794428 253.213319 229.152981 259.64352 235.938124 C 266.070773 242.723268 276.429231 259.149681 276.429231 259.149681 Z M 221.071157 263.078697 " stroke="#000000" stroke-width="1" stroke-opacity="1" stroke-miterlimit="4"/></g><path stroke-linecap="butt" transform="matrix(1.325532, 0, 0, 1.325276, 157.189642, -205.753446)" fill-opacity="1" fill="#38b6ff" fill-rule="nonzero" stroke-linejoin="miter" d="M 57.142298 243.790262 C 57.142298 243.790262 63.572498 318.789381 49.285783 418.07884 C 36.057016 510.026079 29.284971 505.221655 27.142553 536.65084 C 25.000135 568.077077 29.284971 619.507991 29.284971 619.507991 C 29.284971 619.507991 350.715435 626.649782 439.285408 621.650823 C 527.85538 616.648917 740.71506 580.220774 740.71506 580.220774 C 740.71506 580.220774 739.285799 553.077253 710.002159 538.077429 C 680.715571 523.077606 623.571657 518.078647 590.003181 505.93495 C 556.431758 493.791253 455.711594 469.506807 403.571567 403.076069 C 351.431539 336.645331 304.769854 258.515969 282.140381 248.075926 C 261.231915 250.899631 217.142899 253.78818 161.431193 252.36159 C 105.722434 250.932053 57.142298 243.790262 57.142298 243.790262 Z M 57.142298 243.790262 " stroke="#000000" stroke-width="1" stroke-opacity="1" stroke-miterlimit="4"/><path stroke-linecap="butt" transform="matrix(1.325532, 0, 0, 1.325276, 162.870876, -204.807217)" fill-opacity="1" fill="#ffffff" fill-rule="nonzero" stroke-linejoin="miter" d="M 236.429388 407.720636 C 236.429388 447.762414 202.85207 480.220275 161.430026 480.220275 C 120.007982 480.220275 86.430665 447.762414 86.430665 407.720636 C 86.430665 367.678859 120.007982 335.220998 161.430026 335.220998 C 202.85207 335.220998 236.429388 367.678859 236.429388 407.720636 Z M 236.429388 407.720636 " stroke="#d8d8d8" stroke-width="1" stroke-opacity="1" stroke-miterlimit="4"/><path stroke-linecap="butt" transform="matrix(0.205285, 0, 0, 0.199269, 521.525428, 475.040828)" fill="none" stroke-linejoin="miter" d="M 236.437322 407.712776 C 236.437322 447.761591 202.852179 480.224067 161.427331 480.224067 C 120.002483 480.224067 86.436369 447.761591 86.436369 407.712776 C 86.436369 367.683564 120.002483 335.221088 161.427331 335.221088 C 202.852179 335.221088 236.437322 367.683564 236.437322 407.712776 Z M 236.437322 407.712776 " stroke="#ffffff" stroke-width="48.764999" stroke-opacity="1" stroke-miterlimit="4"/><path stroke-linecap="butt" transform="matrix(0.205285, 0, 0, 0.199269, 629.649119, 473.437268)" fill="none" stroke-linejoin="miter" d="M 236.424672 407.7228 C 236.424672 447.752012 202.858558 480.214487 161.43371 480.214487 C 120.008862 480.214487 86.423719 447.752012 86.423719 407.7228 C 86.423719 367.673985 120.008862 335.211509 161.43371 335.211509 C 202.858558 335.211509 236.424672 367.673985 236.424672 407.7228 Z M 236.424672 407.7228 " stroke="#ffffff" stroke-width="48.764999" stroke-opacity="1" stroke-miterlimit="4"/><path stroke-linecap="butt" transform="matrix(0.198353, 0.118904, -0.0912629, 0.164122, 544.894539, 97.019101)" fill="none" stroke-linejoin="miter" d="M 236.431453 407.715641 C 236.421177 447.75614 202.851445 480.216744 161.433278 480.210621 C 120.000341 480.215198 86.439557 447.764361 86.42685 407.716711 C 86.437125 367.676212 120.006858 335.215608 161.425025 335.221731 C 202.857961 335.217154 236.426958 367.685842 236.431453 407.715641 Z M 236.431453 407.715641 " stroke="#ffffff" stroke-width="48.766998" stroke-opacity="1" stroke-miterlimit="4"/><path stroke-linecap="butt" transform="matrix(0.198353, 0.118904, -0.0912629, 0.164122, 587.497129, 174.16343)" fill="none" stroke-linejoin="miter" d="M 236.427994 407.71938 C 236.432488 447.749178 202.847985 480.220483 161.429819 480.21436 C 120.011652 480.208237 86.436098 447.768099 86.42339 407.72045 C 86.433666 367.679951 120.003399 335.219347 161.436336 335.214769 C 202.854502 335.220893 236.438269 367.678881 236.427994 407.71938 Z M 236.427994 407.71938 " stroke="#ffffff" stroke-width="48.766998" stroke-opacity="1" stroke-miterlimit="4"/><path stroke-linecap="butt" transform="matrix(0.198353, 0.118904, -0.0912629, 0.164122, 634.831918, 244.217528)" fill="none" stroke-linejoin="miter" d="M 236.433573 407.718929 C 236.423298 447.759428 202.853565 480.220032 161.435398 480.213909 C 120.002461 480.218486 86.433465 447.749798 86.42897 407.719999 C 86.439245 367.6795 120.008978 335.218896 161.427145 335.225019 C 202.860082 335.220442 236.429079 367.68913 236.433573 407.718929 Z M 236.433573 407.718929 " stroke="#ffffff" stroke-width="48.766998" stroke-opacity="1" stroke-miterlimit="4"/><path stroke-linecap="butt" transform="matrix(0.19761, 0.122217, -0.0909183, 0.168681, 697.304203, 303.828461)" fill="none" stroke-linejoin="miter" d="M 236.43607 407.722144 C 236.434913 447.762466 202.85829 480.21853 161.428322 480.22413 C 120.01318 480.218989 86.439487 447.762189 86.440644 407.721868 C 86.426975 367.692289 120.010432 335.208114 161.425575 335.213256 C 202.840717 335.218397 236.437227 367.681823 236.43607 407.722144 Z M 236.43607 407.722144 " stroke="#ffffff" stroke-width="48.766998" stroke-opacity="1" stroke-miterlimit="4"/><path stroke-linecap="butt" transform="matrix(0.215836, 0.0860502, -0.0602454, 0.181907, 754.196032, 348.675763)" fill="none" stroke-linejoin="miter" d="M 236.433984 407.715977 C 236.428621 447.767224 202.850199 480.229095 161.437206 480.213643 C 120.013521 480.224724 86.426934 447.753569 86.437592 407.721291 C 86.426968 367.677607 120.00539 335.215736 161.43437 335.223625 C 202.842068 335.220107 236.42336 367.672293 236.433984 407.715977 Z M 236.433984 407.715977 " stroke="#ffffff" stroke-width="48.766998" stroke-opacity="1" stroke-miterlimit="4"/><path stroke-linecap="butt" transform="matrix(0.210866, 0.0699216, -0.0588536, 0.147808, 833.582196, 396.703769)" fill="none" stroke-linejoin="miter" d="M 236.430799 407.722167 C 236.434674 447.758538 202.849674 480.21641 161.431042 480.226725 C 120.005893 480.213695 86.422194 447.764135 86.434683 407.720023 C 86.430808 367.683652 120.015809 335.22578 161.434441 335.215465 C 202.859589 335.228495 236.426924 367.685797 236.430799 407.722167 Z M 236.430799 407.722167 " stroke="#ffffff" stroke-width="48.766998" stroke-opacity="1" stroke-miterlimit="4"/><path stroke-linecap="butt" transform="matrix(0.210866, 0.0699216, -0.0588536, 0.147808, 913.114112, 417.815423)" fill="none" stroke-linejoin="miter" d="M 236.424207 407.709866 C 236.434598 447.769582 202.849598 480.227454 161.42445 480.214424 C 120.005817 480.224739 86.438482 447.767438 86.428092 407.707721 C 86.424217 367.671351 120.009217 335.213478 161.434365 335.226509 C 202.852997 335.216194 236.420333 367.673495 236.424207 407.709866 Z M 236.424207 407.709866 " stroke="#ffffff" stroke-width="48.766998" stroke-opacity="1" stroke-miterlimit="4"/><path stroke-linecap="butt" transform="matrix(0.219813, 0.0293549, -0.03229, 0.141831, 983.022605, 444.851038)" fill="none" stroke-linejoin="miter" d="M 236.430187 407.70886 C 236.430616 447.754218 202.848661 480.208194 161.426104 480.21602 C 120.003546 480.223846 86.428379 447.760931 86.427949 407.715573 C 86.427519 367.670215 120.009474 335.216238 161.432032 335.208412 C 202.858517 335.227315 236.433683 367.690231 236.430187 407.70886 Z M 236.430187 407.70886 " stroke="#ffffff" stroke-width="48.766998" stroke-opacity="1" stroke-miterlimit="4"/><path stroke-linecap="butt" transform="matrix(1.325532, 0, 0, 1.325276, 157.189642, -205.753446)" fill-opacity="1" fill="#ffffff" fill-rule="nonzero" stroke-linejoin="miter" d="M 806.490531 556.119072 C 800.06033 543.978323 791.139974 534.38716 778.577213 531.295234 C 752.55877 524.890318 702.505169 529.329252 687.145772 531.115436 C 671.789321 532.901621 719.111118 569.866209 737.862432 580.580369 C 750.979216 575.171707 798.383527 566.853865 806.487584 556.119072 Z M 806.490531 556.119072 " stroke="#000000" stroke-width="5" stroke-opacity="1" stroke-miterlimit="4"/><path stroke-linecap="butt" transform="matrix(1.325532, 0, 0, 1.325276, 157.189642, -205.753446)" fill-opacity="1" fill="#ffffff" fill-rule="nonzero" stroke-linejoin="round" d="M 21.08956 602.63061 C 21.08956 602.63061 222.438532 610.694968 365.538492 608.670036 C 507.388953 606.665737 731.358558 583.704718 807.138856 548.078294 C 809.458089 554.913545 817.712439 561.392148 820.579802 569.332711 C 823.974665 578.729339 833.522717 616.492699 827.808621 630.776281 C 822.094524 645.062809 728.567816 668.165309 657.140133 679.592763 C 585.712451 691.023165 489.910713 691.108643 414.198195 691.108643 C 338.488624 691.108643 174.20908 700.004195 111.348123 697.991053 C 48.378129 695.974964 29.426424 690.678308 17.229082 680.848398 C 15.319471 663.151612 21.08956 602.627663 21.08956 602.627663 Z M 21.08956 602.63061 " stroke="#000000" stroke-width="5" stroke-opacity="1" stroke-miterlimit="4"/><g clip-path="url(#04c7bbf121)"><path stroke-linecap="butt" transform="matrix(1.325532, 0, 0, 1.325276, 157.189642, -205.753446)" fill="none" stroke-linejoin="miter" d="M 605.710316 590.581233 C 613.210252 620.937528 621.779924 662.007983 623.925289 684.865839 " stroke="#000000" stroke-width="6" stroke-opacity="1" stroke-miterlimit="4"/></g><g clip-path="url(#f15ac80edf)"><path stroke-linecap="butt" transform="matrix(1.325532, 0, 0, 1.325276, 157.189642, -205.753446)" fill="none" stroke-linejoin="miter" d="M 20.7153 614.509032 L 35.355646 617.011459 L 34.642489 689.154451 " stroke="#000000" stroke-width="5" stroke-opacity="1" stroke-miterlimit="4"/></g><g clip-path="url(#3426a96554)"><path stroke-linecap="butt" transform="matrix(1.325532, 0, 0, 1.325276, 157.189642, -205.753446)" fill="none" stroke-linejoin="miter" d="M 34.642489 660.581393 C 34.642489 660.581393 51.012684 666.992204 77.275722 667.496226 C 103.541706 668.003196 235.366713 664.495672 275.766172 664.466197 C 311.630307 664.442617 440.408188 662.582745 488.90581 660.425176 C 541.423045 658.090756 619.216095 649.313103 619.216095 649.313103 " stroke="#000000" stroke-width="8" stroke-opacity="1" stroke-miterlimit="4"/></g><path stroke-linecap="round" transform="matrix(1.325532, 0, 0, 1.325276, 157.189642, -205.753446)" fill="none" stroke-linejoin="miter" d="M 234.358863 256.069544 C 269.993137 313.45146 277.699358 364.791001 328.740181 422.169969 C 379.781003 479.548937 421.194206 514.783343 491.499108 532.898673 C 561.806957 551.016951 714.929425 570.146221 714.929425 570.146221 " stroke="#ffffff" stroke-width="4.874" stroke-opacity="1" stroke-miterlimit="4"/><path stroke-linecap="butt" transform="matrix(1.325532, 0, 0, 1.325276, 157.189642, -205.753446)" fill-opacity="1" fill="#ffffff" fill-rule="nonzero" stroke-linejoin="round" d="M 285.709113 289.060903 C 287.406544 294.148287 288.51459 295.041379 290.294536 298.012458 C 312.953478 296.874724 315.62929 288.014541 330.56433 287.952644 C 329.7775 283.151167 322.586991 271.43191 316.533998 268.354721 C 300.05182 272.419323 296.863242 275.938637 285.709113 289.060903 Z M 285.709113 289.060903 " stroke="#000000" stroke-width="3" stroke-opacity="1" stroke-miterlimit="4"/><path stroke-linecap="butt" transform="matrix(1.325532, 0, 0, 1.325276, 157.189642, -205.753446)" fill-opacity="1" fill="#ffffff" fill-rule="nonzero" stroke-linejoin="round" d="M 317.158747 346.879048 C 318.856178 351.96938 320.945551 352.774047 322.725497 355.742179 C 345.38444 354.607391 348.14866 346.905576 363.086646 346.846626 C 362.299816 342.042202 355.106361 330.322945 349.056314 327.245756 C 332.574136 331.310357 328.315823 333.756782 317.161694 346.879048 Z M 317.158747 346.879048 " stroke="#000000" stroke-width="3" stroke-opacity="1" stroke-miterlimit="4"/><path stroke-linecap="butt" transform="matrix(1.325532, 0, 0, 1.325276, 157.189642, -205.753446)" fill-opacity="1" fill="#ffffff" fill-rule="nonzero" stroke-linejoin="round" d="M 355.869615 398.610608 C 357.567047 403.697991 356.889253 405.663973 358.666252 408.635053 C 377.220121 394.103881 386.323187 393.455432 398.402652 384.468506 C 397.615822 379.664083 391.13847 370.800952 385.088423 367.726711 C 368.603299 371.791312 367.023744 385.488341 355.869615 398.610608 Z M 355.869615 398.610608 " stroke="#000000" stroke-width="3" stroke-opacity="1" stroke-miterlimit="4"/><path stroke-linecap="butt" transform="matrix(1.325532, 0, 0, 1.325276, 157.189642, -205.753446)" fill-opacity="1" fill="#ffffff" fill-rule="nonzero" stroke-linejoin="round" d="M 400.321103 446.339463 C 402.015588 451.429794 403.123633 452.322886 404.903579 455.293966 C 421.627405 451.630224 432.763852 436.707035 440.567322 432.164939 C 439.780492 427.363463 433.090962 422.523669 427.040915 419.44648 C 410.558737 423.514029 399.982206 438.519747 400.321103 446.339463 Z M 400.321103 446.339463 " stroke="#000000" stroke-width="3" stroke-opacity="1" stroke-miterlimit="4"/><path stroke-linecap="butt" transform="matrix(1.325532, 0, 0, 1.325276, 157.189642, -205.753446)" fill-opacity="1" fill="#ffffff" fill-rule="nonzero" stroke-linejoin="round" d="M 453.489609 481.111112 C 455.18704 486.198495 457.42376 486.6642 462.359867 487.740037 C 477.978595 478.694162 477.987436 467.814942 480.966782 459.078555 C 480.182898 454.274131 468.672191 451.848339 462.622144 448.77115 C 457.388397 461.230229 458.151652 472.130081 453.489609 481.111112 Z M 453.489609 481.111112 " stroke="#000000" stroke-width="3" stroke-opacity="1" stroke-miterlimit="4"/><path stroke-linecap="butt" transform="matrix(1.325532, 0, 0, 1.325276, 157.189642, -205.753446)" fill-opacity="1" fill="#ffffff" fill-rule="nonzero" stroke-linejoin="round" d="M 511.829976 506.550977 C 515.543108 508.732127 519.951715 509.793227 524.83183 509.999552 C 529.090144 497.292882 530.42805 486.814523 530.242393 477.585902 C 527.858327 473.341504 516.341726 469.819242 509.602098 468.99689 C 513.99597 479.336717 513.14136 496.51769 511.829976 506.550977 Z M 511.829976 506.550977 " stroke="#000000" stroke-width="3" stroke-opacity="1" stroke-miterlimit="4"/><path stroke-linecap="butt" transform="matrix(1.325532, 0, 0, 1.325276, 157.189642, -205.753446)" fill-opacity="1" fill="#ffffff" fill-rule="nonzero" stroke-linejoin="round" d="M 572.92867 522.909598 C 576.942388 526.470177 579.367711 527.26895 584.180048 525.733303 C 590.784117 516.021293 587.244855 504.579101 583.437421 499.308972 C 580.354933 495.542068 573.214522 493.764726 566.436584 494.124321 C 567.123219 503.742011 569.575064 512.675881 572.92867 522.909598 Z M 572.92867 522.909598 " stroke="#000000" stroke-width="3" stroke-opacity="1" stroke-miterlimit="4"/><path stroke-linecap="butt" transform="matrix(1.325532, 0, 0, 1.325276, 157.189642, -205.753446)" fill-opacity="1" fill="#ffffff" fill-rule="nonzero" stroke-linejoin="round" d="M 634.498872 536.730422 C 638.512591 540.288054 640.684478 539.574759 645.496814 538.039112 C 651.470241 530.726366 650.583215 526.10174 648.040014 519.063112 C 644.957526 515.296208 632.766078 512.507873 625.988139 512.870416 C 627.178699 518.447084 634.047992 526.6205 634.501819 536.730422 Z M 634.498872 536.730422 " stroke="#000000" stroke-width="3" stroke-opacity="1" stroke-miterlimit="4"/></svg>