<svg xmlns="http://www.w3.org/2000/svg" xmlns:xlink="http://www.w3.org/1999/xlink" width="500" zoomAndPan="magnify" viewBox="0 0 375 374.999991" height="500" preserveAspectRatio="xMidYMid meet" version="1.0"><defs><g/><clipPath id="28512a6fa9"><path d="M 54.003906 105 L 320 105 L 320 155.25 L 54.003906 155.25 Z M 54.003906 105 " clip-rule="nonzero"/></clipPath><clipPath id="3889a1187f"><path d="M 235 108 L 264 108 L 264 155.25 L 235 155.25 Z M 235 108 " clip-rule="nonzero"/></clipPath><clipPath id="4d326b8691"><path d="M 54.003906 118 L 71 118 L 71 155.25 L 54.003906 155.25 Z M 54.003906 118 " clip-rule="nonzero"/></clipPath><clipPath id="8d41ea2fbf"><path d="M 54.003906 123 L 266 123 L 266 155.25 L 54.003906 155.25 Z M 54.003906 123 " clip-rule="nonzero"/></clipPath></defs><path stroke-linecap="butt" transform="matrix(0.324081, 0, 0, 0.323505, 49.903136, -71.46223)" fill-opacity="1" fill="#000000" fill-rule="nonzero" stroke-linejoin="miter" d="M 221.067553 263.077205 C 220.54926 253.055138 219.380088 249.154985 222.574219 242.405183 C 228.154907 230.620199 240.485457 221.455442 245.716599 222.36105 C 253.924912 223.797949 253.213766 229.147076 259.638187 235.933102 C 266.074662 242.719127 276.428466 259.152902 276.428466 259.152902 Z M 221.067553 263.077205 " stroke="#000000" stroke-width="1" stroke-opacity="1" stroke-miterlimit="4"/><path stroke-linecap="butt" transform="matrix(0.324081, 0, 0, 0.323505, 49.903136, -71.46223)" fill-opacity="1" fill="#000000" fill-rule="nonzero" stroke-linejoin="miter" d="M 57.142359 243.793783 C 57.142359 243.793783 63.56678 318.790235 49.283592 418.081143 C 36.061097 510.030585 29.287129 505.224823 27.141638 536.655473 C 24.996146 568.074048 29.287129 619.512607 29.287129 619.512607 C 29.287129 619.512607 350.713096 626.648801 439.280915 621.649843 C 527.860786 616.650884 740.710419 580.221276 740.710419 580.221276 C 740.710419 580.221276 739.288127 553.077173 709.998551 538.080297 C 680.72103 523.083422 623.576225 518.072388 590.00772 505.937235 C 556.427162 493.790008 455.709594 469.507627 403.566918 403.072193 C 351.436296 336.648833 304.765829 258.512938 282.141741 248.080329 C 261.229226 250.893753 217.13817 253.7917 161.42771 252.354801 C 105.717251 250.929977 57.142359 243.793783 57.142359 243.793783 Z M 57.142359 243.793783 " stroke="#000000" stroke-width="1" stroke-opacity="1" stroke-miterlimit="4"/><path stroke-linecap="butt" transform="matrix(0.324081, 0, 0, 0.323505, 51.292151, -71.231247)" fill-opacity="1" fill="#ffffff" fill-rule="nonzero" stroke-linejoin="miter" d="M 236.428457 407.719393 C 236.428457 447.75936 202.847899 480.216366 161.43268 480.216366 C 120.005409 480.216366 86.424851 447.75936 86.424851 407.719393 C 86.424851 367.679425 120.005409 335.222419 161.43268 335.222419 C 202.847899 335.222419 236.428457 367.679425 236.428457 407.719393 Z M 236.428457 407.719393 " stroke="#d8d8d8" stroke-width="1" stroke-opacity="1" stroke-miterlimit="4"/><path stroke-linecap="butt" transform="matrix(0.0501904, 0, 0, 0.0486422, 138.979975, 94.722224)" fill="none" stroke-linejoin="miter" d="M 236.453272 407.721381 C 236.453272 447.79397 202.831295 480.23751 161.426452 480.23751 C 120.02161 480.23751 86.399633 447.79397 86.399633 407.721381 C 86.399633 367.648791 120.02161 335.205252 161.426452 335.205252 C 202.831295 335.205252 236.453272 367.648791 236.453272 407.721381 Z M 236.453272 407.721381 " stroke="#ffffff" stroke-width="48.764999" stroke-opacity="1" stroke-miterlimit="4"/><path stroke-linecap="butt" transform="matrix(0.0501904, 0, 0, 0.0486422, 165.415246, 94.330789)" fill="none" stroke-linejoin="miter" d="M 236.419853 407.738037 C 236.419853 447.73032 202.875704 480.254165 161.393033 480.254165 C 119.988191 480.254165 86.444042 447.73032 86.444042 407.738037 C 86.444042 367.665447 119.988191 335.221908 161.393033 335.221908 C 202.875704 335.221908 236.419853 367.665447 236.419853 407.738037 Z M 236.419853 407.738037 " stroke="#ffffff" stroke-width="48.764999" stroke-opacity="1" stroke-miterlimit="4"/><path stroke-linecap="butt" transform="matrix(0.0484954, 0.0290249, -0.022313, 0.0400628, 144.693511, 2.445697)" fill="none" stroke-linejoin="miter" d="M 236.424213 407.678218 C 236.418535 447.75609 202.877139 480.246525 161.462689 480.219655 C 119.987827 480.236553 86.450781 447.786797 86.456459 407.708926 C 86.401725 367.674821 120.037178 335.213746 161.451629 335.240616 C 202.832433 335.194358 236.463536 367.673474 236.424213 407.678218 Z M 236.424213 407.678218 " stroke="#ffffff" stroke-width="48.766998" stroke-opacity="1" stroke-miterlimit="4"/><path stroke-linecap="butt" transform="matrix(0.0484954, 0.0290249, -0.022313, 0.0400628, 155.109458, 21.276916)" fill="none" stroke-linejoin="miter" d="M 236.402067 407.714522 C 236.456801 447.748627 202.821348 480.209702 161.440543 480.255959 C 120.026093 480.22909 86.394989 447.749974 86.434313 407.745229 C 86.439991 367.667358 120.015032 335.25005 161.395837 335.203793 C 202.870699 335.186895 236.441391 367.709778 236.402067 407.714522 Z M 236.402067 407.714522 " stroke="#ffffff" stroke-width="48.766998" stroke-opacity="1" stroke-miterlimit="4"/><path stroke-linecap="butt" transform="matrix(0.0484954, 0.0290249, -0.022313, 0.0400628, 166.682396, 38.377384)" fill="none" stroke-linejoin="miter" d="M 236.431298 407.720674 C 236.425621 447.798546 202.850579 480.215854 161.436128 480.188984 C 120.021678 480.162115 86.424221 447.756126 86.429898 407.678255 C 86.40881 367.717277 120.010617 335.183075 161.425068 335.209945 C 202.839519 335.236814 236.436976 367.642803 236.431298 407.720674 Z M 236.431298 407.720674 " stroke="#ffffff" stroke-width="48.766998" stroke-opacity="1" stroke-miterlimit="4"/><path stroke-linecap="butt" transform="matrix(0.048314, 0.0298336, -0.0222287, 0.0411757, 181.956321, 52.928637)" fill="none" stroke-linejoin="miter" d="M 236.427773 407.701569 C 236.416656 447.743852 202.84934 480.223493 161.458584 480.234689 C 119.974456 480.218671 86.452172 447.77608 86.463289 407.733797 C 86.474405 367.691514 120.041722 335.211874 161.432477 335.200677 C 202.855968 335.26063 236.43889 367.659286 236.427773 407.701569 Z M 236.427773 407.701569 " stroke="#ffffff" stroke-width="48.766998" stroke-opacity="1" stroke-miterlimit="4"/><path stroke-linecap="butt" transform="matrix(0.0527701, 0.0210052, -0.0147295, 0.0444043, 195.865861, 63.876039)" fill="none" stroke-linejoin="miter" d="M 236.407462 407.697038 C 236.424532 447.803338 202.837757 480.229739 161.447737 480.191697 C 119.992327 480.184588 86.440055 447.760687 86.444676 407.732096 C 86.449297 367.703505 120.014381 335.199395 161.404401 335.237437 C 202.85981 335.244547 236.412082 367.668447 236.407462 407.697038 Z M 236.407462 407.697038 " stroke="#ffffff" stroke-width="48.766998" stroke-opacity="1" stroke-miterlimit="4"/><path stroke-linecap="butt" transform="matrix(0.0515548, 0.0170681, -0.0143892, 0.0360805, 215.275039, 75.599856)" fill="none" stroke-linejoin="miter" d="M 236.446062 407.757949 C 236.389845 447.734273 202.884896 480.256795 161.441797 480.265788 C 119.998699 480.27478 86.448003 447.75177 86.410595 407.711472 C 86.440119 367.639511 119.971761 335.212626 161.414859 335.203633 C 202.857958 335.194641 236.408654 367.717651 236.446062 407.757949 Z M 236.446062 407.757949 " stroke="#ffffff" stroke-width="48.766998" stroke-opacity="1" stroke-miterlimit="4"/><path stroke-linecap="butt" transform="matrix(0.0515548, 0.0170681, -0.0143892, 0.0360805, 234.7199, 80.753287)" fill="none" stroke-linejoin="miter" d="M 236.446367 407.727675 C 236.416843 447.799635 202.885202 480.226521 161.442103 480.235513 C 119.999004 480.244505 86.448308 447.721495 86.4109 407.681197 C 86.467117 367.704874 119.998759 335.277989 161.415165 335.173359 C 202.858263 335.164366 236.40896 367.687377 236.446367 407.727675 Z M 236.446367 407.727675 " stroke="#ffffff" stroke-width="48.766998" stroke-opacity="1" stroke-miterlimit="4"/><path stroke-linecap="butt" transform="matrix(0.0537423, 0.00716563, -0.00789461, 0.0346215, 251.811902, 87.35278)" fill="none" stroke-linejoin="miter" d="M 236.459928 407.749561 C 236.456352 447.804 202.846361 480.259258 161.41601 480.259249 C 119.98566 480.25924 86.422005 447.716371 86.441666 407.77143 C 86.445241 367.716991 119.984693 335.276333 161.415043 335.276342 C 202.845394 335.27635 236.463503 367.695122 236.459928 407.749561 Z M 236.459928 407.749561 " stroke="#ffffff" stroke-width="48.766998" stroke-opacity="1" stroke-miterlimit="4"/><path stroke-linecap="butt" transform="matrix(0.324081, 0, 0, 0.323505, 49.903136, -71.46223)" fill-opacity="1" fill="#ffffff" fill-rule="nonzero" stroke-linejoin="miter" d="M 806.485403 556.120017 C 800.060982 543.972789 791.141523 534.385415 778.58196 531.294271 C 752.558835 524.894638 702.501385 529.326082 687.145451 531.11315 C 671.789517 532.900217 719.110864 569.861115 737.865835 580.583519 C 750.97985 575.174018 798.38557 566.854495 806.485403 556.120017 Z M 806.485403 556.120017 " stroke="#000000" stroke-width="5" stroke-opacity="1" stroke-miterlimit="4"/><path fill="#ffffff" d="M 56.738281 123.492188 C 56.738281 123.492188 121.992188 126.101562 168.367188 125.445312 C 214.339844 124.796875 286.921875 117.371094 311.480469 105.84375 C 312.234375 108.054688 314.90625 110.152344 315.835938 112.71875 C 316.9375 115.757812 320.03125 127.976562 318.179688 132.597656 C 316.328125 137.21875 286.019531 144.691406 262.871094 148.390625 C 239.722656 152.085938 208.671875 152.113281 184.136719 152.113281 C 159.601562 152.113281 106.359375 154.992188 85.988281 154.339844 C 65.582031 153.6875 59.441406 151.976562 55.488281 148.796875 C 54.867188 143.070312 56.738281 123.492188 56.738281 123.492188 Z M 56.738281 123.492188 " fill-opacity="1" fill-rule="nonzero"/><g clip-path="url(#28512a6fa9)"><path stroke-linecap="butt" transform="matrix(0.324081, 0, 0, 0.323505, 49.903136, -71.46223)" fill="none" stroke-linejoin="round" d="M 21.09087 602.632066 C 21.09087 602.632066 222.441632 610.698018 365.538684 608.669455 C 507.394243 606.665042 731.35704 583.710887 807.136282 548.078214 C 809.462574 554.912539 817.707047 561.396695 820.575738 569.329825 C 823.974775 578.724003 833.521007 616.493912 827.807732 630.778376 C 822.094456 645.062839 728.572722 668.161891 657.14473 679.596707 C 585.716737 691.019448 489.904872 691.103972 414.197949 691.103972 C 338.491027 691.103972 174.204233 700.003084 111.346153 697.986596 C 48.379593 695.970108 29.431769 690.681354 17.233806 680.852484 C 15.317328 663.150858 21.09087 602.632066 21.09087 602.632066 Z M 21.09087 602.632066 " stroke="#000000" stroke-width="5" stroke-opacity="1" stroke-miterlimit="4"/></g><g clip-path="url(#3889a1187f)"><path stroke-linecap="butt" transform="matrix(0.324081, 0, 0, 0.323505, 49.903136, -71.46223)" fill="none" stroke-linejoin="miter" d="M 605.7132 590.581436 C 613.210367 620.937431 621.78028 662.003754 623.925771 684.861311 " stroke="#000000" stroke-width="6" stroke-opacity="1" stroke-miterlimit="4"/></g><g clip-path="url(#4d326b8691)"><path stroke-linecap="butt" transform="matrix(0.324081, 0, 0, 0.323505, 49.903136, -71.46223)" fill="none" stroke-linejoin="miter" d="M 20.717217 614.513648 L 35.362004 617.013128 L 34.638805 689.147857 " stroke="#000000" stroke-width="5" stroke-opacity="1" stroke-miterlimit="4"/></g><g clip-path="url(#8d41ea2fbf)"><path stroke-linecap="butt" transform="matrix(0.324081, 0, 0, 0.323505, 49.903136, -71.46223)" fill="none" stroke-linejoin="miter" d="M 34.638805 660.57893 C 34.638805 660.57893 51.007217 666.990638 77.271409 667.497779 C 103.5356 668.004919 235.362794 664.491159 275.765533 664.467009 C 311.636223 664.44286 440.401874 662.583344 488.904446 660.421958 C 541.420775 658.091526 619.212922 649.313161 619.212922 649.313161 " stroke="#000000" stroke-width="8" stroke-opacity="1" stroke-miterlimit="4"/></g><path stroke-linecap="round" transform="matrix(0.324081, 0, 0, 0.323505, 49.903136, -71.46223)" fill="none" stroke-linejoin="miter" d="M 234.362369 256.073833 C 269.991992 313.453183 277.694065 364.795143 328.739888 422.174493 C 379.785712 479.553843 421.188877 514.788048 491.49591 532.900217 C 561.802944 551.012385 714.928361 570.15091 714.928361 570.15091 " stroke="#ffffff" stroke-width="4.874" stroke-opacity="1" stroke-miterlimit="4"/><path stroke-linecap="butt" transform="matrix(0.324081, 0, 0, 0.323505, 49.903136, -71.46223)" fill-opacity="1" fill="#ffffff" fill-rule="nonzero" stroke-linejoin="round" d="M 285.709525 289.062129 C 287.409043 294.145611 288.517949 295.039145 290.289788 298.009541 C 312.950035 296.874511 315.625873 288.011624 330.55994 287.95125 C 329.776474 283.145488 322.58064 271.432952 316.529872 268.353883 C 300.052979 272.423084 296.858849 275.936845 285.709525 289.062129 Z M 285.709525 289.062129 " stroke="#000000" stroke-width="3" stroke-opacity="1" stroke-miterlimit="4"/><path stroke-linecap="butt" transform="matrix(0.324081, 0, 0, 0.323505, 49.903136, -71.46223)" fill-opacity="1" fill="#ffffff" fill-rule="nonzero" stroke-linejoin="round" d="M 317.156645 346.876171 C 318.856163 351.971728 320.941388 352.768663 322.72528 355.739059 C 345.385528 354.60403 348.145739 346.900321 363.091859 346.839947 C 362.29634 342.04626 355.112559 330.321649 349.061791 327.242581 C 332.572845 331.311781 328.318022 333.762961 317.156645 346.876171 Z M 317.156645 346.876171 " stroke="#000000" stroke-width="3" stroke-opacity="1" stroke-miterlimit="4"/><path stroke-linecap="butt" transform="matrix(0.324081, 0, 0, 0.323505, 49.903136, -71.46223)" fill-opacity="1" fill="#ffffff" fill-rule="nonzero" stroke-linejoin="round" d="M 355.871919 398.604525 C 357.571437 403.700081 356.884398 405.66827 358.66829 408.638666 C 377.218354 394.100632 386.318613 393.460669 398.408096 384.464958 C 397.612577 379.671271 391.139942 370.796309 385.089174 367.729315 C 368.600228 371.78644 367.021243 385.491315 355.871919 398.604525 Z M 355.871919 398.604525 " stroke="#000000" stroke-width="3" stroke-opacity="1" stroke-miterlimit="4"/><path stroke-linecap="butt" transform="matrix(0.324081, 0, 0, 0.323505, 49.903136, -71.46223)" fill-opacity="1" fill="#ffffff" fill-rule="nonzero" stroke-linejoin="round" d="M 400.324574 446.336126 C 402.01204 451.431683 403.120945 452.325216 404.904837 455.295612 C 421.622796 451.624879 432.760067 436.712527 440.57062 432.160336 C 439.775101 427.366648 433.09756 422.524662 427.046792 419.445593 C 410.557846 423.514794 399.987081 438.523744 400.324574 446.336126 Z M 400.324574 446.336126 " stroke="#000000" stroke-width="3" stroke-opacity="1" stroke-miterlimit="4"/><path stroke-linecap="butt" transform="matrix(0.324081, 0, 0, 0.323505, 49.903136, -71.46223)" fill-opacity="1" fill="#ffffff" fill-rule="nonzero" stroke-linejoin="round" d="M 453.491783 481.11149 C 455.191301 486.194972 457.421166 486.665888 462.363028 487.740543 C 477.984135 478.696534 477.984135 467.817158 480.973359 459.075018 C 480.17784 454.269256 468.666916 451.842225 462.616148 448.775231 C 457.385006 461.224329 458.156419 472.127854 453.491783 481.11149 Z M 453.491783 481.11149 " stroke="#000000" stroke-width="3" stroke-opacity="1" stroke-miterlimit="4"/><path stroke-linecap="butt" transform="matrix(0.324081, 0, 0, 0.323505, 49.903136, -71.46223)" fill-opacity="1" fill="#ffffff" fill-rule="nonzero" stroke-linejoin="round" d="M 511.829866 506.553049 C 515.54229 508.726509 519.953806 509.78909 524.835402 510.006436 C 529.090225 497.291694 530.428144 486.810785 530.247344 477.585654 C 527.860786 473.335332 516.337809 469.821571 509.600002 469.000486 C 513.999465 479.336497 513.143679 496.518908 511.829866 506.553049 Z M 511.829866 506.553049 " stroke="#000000" stroke-width="3" stroke-opacity="1" stroke-miterlimit="4"/><path stroke-linecap="butt" transform="matrix(0.324081, 0, 0, 0.323505, 49.903136, -71.46223)" fill-opacity="1" fill="#ffffff" fill-rule="nonzero" stroke-linejoin="round" d="M 572.928161 522.914375 C 576.941918 526.46436 579.364636 527.27337 584.173912 525.727798 C 590.779133 516.019676 587.247509 504.572785 583.438659 499.308182 C 580.353008 495.540851 573.217441 493.765858 566.43142 494.128101 C 567.118459 503.739626 569.577337 512.674962 572.928161 522.914375 Z M 572.928161 522.914375 " stroke="#000000" stroke-width="3" stroke-opacity="1" stroke-miterlimit="4"/><path stroke-linecap="butt" transform="matrix(0.324081, 0, 0, 0.323505, 49.903136, -71.46223)" fill-opacity="1" fill="#ffffff" fill-rule="nonzero" stroke-linejoin="round" d="M 634.496536 536.727922 C 638.510292 540.289982 640.67989 539.57757 645.50122 538.044073 C 651.467615 530.726757 650.587722 526.102116 648.044471 519.06252 C 644.95882 515.295189 632.760857 512.505915 625.986889 512.868158 C 627.180168 518.446706 634.050563 526.621332 634.496536 536.727922 Z M 634.496536 536.727922 " stroke="#000000" stroke-width="3" stroke-opacity="1" stroke-miterlimit="4"/><g fill="#000000" fill-opacity="1"><g transform="translate(39.475137, 202.905286)"><g><path d="M 12.5 -28.203125 L 0.921875 -28.203125 L 0.921875 -30.796875 L 39.515625 -30.796875 L 39.515625 -28.203125 L 27.890625 -28.203125 L 27.890625 0 L 12.5 0 Z M 12.5 -28.203125 "/></g></g></g><g fill="#000000" fill-opacity="1"><g transform="translate(79.906212, 202.905286)"><g><path d="M 1.234375 -30.796875 L 16.1875 -30.796875 L 16.1875 -17.03125 L 25.921875 -17.03125 L 25.921875 -30.796875 L 40.875 -30.796875 L 40.875 0 L 25.921875 0 L 25.921875 -14.078125 L 16.1875 -14.078125 L 16.1875 0 L 1.234375 0 Z M 1.234375 -30.796875 "/></g></g></g><g fill="#000000" fill-opacity="1"><g transform="translate(122.009087, 202.905286)"><g><path d="M 1.234375 -30.796875 L 33.21875 -30.796875 L 33.21875 -28.203125 L 16.71875 -28.203125 L 16.71875 -16.8125 L 24.8125 -16.8125 L 24.8125 -14.171875 L 16.71875 -14.171875 L 16.71875 -2.640625 L 33.21875 -2.640625 L 33.21875 0 L 1.234375 0 Z M 1.234375 -30.796875 "/></g></g></g><g fill="#000000" fill-opacity="1"><g transform="translate(156.500884, 202.905286)"><g/></g></g><g fill="#000000" fill-opacity="1"><g transform="translate(175.286594, 202.905286)"><g><path d="M 24.46875 -19.75 C 27.957031 -18.8125 30.566406 -17.570312 32.296875 -16.03125 C 34.023438 -14.5 34.890625 -12.5 34.890625 -10.03125 C 34.890625 -8.0625 34.273438 -6.300781 33.046875 -4.75 C 31.816406 -3.195312 30.003906 -1.976562 27.609375 -1.09375 C 25.222656 -0.21875 22.328125 0.21875 18.921875 0.21875 C 14.898438 0.21875 11.359375 -0.300781 8.296875 -1.34375 C 5.234375 -2.382812 2.832031 -3.648438 1.09375 -5.140625 L 2.546875 -7.125 C 4.078125 -5.925781 6 -4.898438 8.3125 -4.046875 C 10.632812 -3.191406 13.128906 -2.765625 15.796875 -2.765625 C 17.523438 -2.765625 18.835938 -3.015625 19.734375 -3.515625 C 20.628906 -4.015625 21.078125 -4.71875 21.078125 -5.625 C 21.078125 -7.21875 19.507812 -8.453125 16.375 -9.328125 L 10.640625 -11 C 7.535156 -11.9375 5.140625 -13.238281 3.453125 -14.90625 C 1.765625 -16.582031 0.921875 -18.566406 0.921875 -20.859375 C 0.921875 -22.765625 1.519531 -24.492188 2.71875 -26.046875 C 3.925781 -27.597656 5.679688 -28.820312 7.984375 -29.71875 C 10.285156 -30.613281 13.050781 -31.0625 16.28125 -31.0625 C 19.363281 -31.0625 22.203125 -30.707031 24.796875 -30 C 27.390625 -29.300781 29.507812 -28.453125 31.15625 -27.453125 L 29.703125 -25.4375 C 28.316406 -26.226562 26.664062 -26.898438 24.75 -27.453125 C 22.832031 -28.015625 20.816406 -28.296875 18.703125 -28.296875 C 16.847656 -28.296875 15.429688 -28.007812 14.453125 -27.4375 C 13.472656 -26.863281 12.984375 -26.078125 12.984375 -25.078125 C 12.984375 -24.316406 13.347656 -23.648438 14.078125 -23.078125 C 14.816406 -22.503906 16.210938 -21.941406 18.265625 -21.390625 Z M 24.46875 -19.75 "/></g></g></g><g fill="#000000" fill-opacity="1"><g transform="translate(211.142228, 202.905286)"><g><path d="M 1.234375 -30.796875 L 16.1875 -30.796875 L 16.1875 -17.03125 L 25.921875 -17.03125 L 25.921875 -30.796875 L 40.875 -30.796875 L 40.875 0 L 25.921875 0 L 25.921875 -14.078125 L 16.1875 -14.078125 L 16.1875 0 L 1.234375 0 Z M 1.234375 -30.796875 "/></g></g></g><g fill="#000000" fill-opacity="1"><g transform="translate(253.245104, 202.905286)"><g><path d="M 21.828125 0.21875 C 17.890625 0.21875 14.335938 -0.378906 11.171875 -1.578125 C 8.003906 -2.785156 5.503906 -4.566406 3.671875 -6.921875 C 1.835938 -9.285156 0.921875 -12.125 0.921875 -15.4375 C 0.921875 -18.726562 1.84375 -21.546875 3.6875 -23.890625 C 5.539062 -26.234375 8.039062 -28.015625 11.1875 -29.234375 C 14.34375 -30.453125 17.890625 -31.0625 21.828125 -31.0625 C 25.722656 -31.0625 29.25 -30.453125 32.40625 -29.234375 C 35.5625 -28.015625 38.054688 -26.234375 39.890625 -23.890625 C 41.722656 -21.546875 42.640625 -18.726562 42.640625 -15.4375 C 42.640625 -12.125 41.722656 -9.285156 39.890625 -6.921875 C 38.054688 -4.566406 35.5625 -2.785156 32.40625 -1.578125 C 29.25 -0.378906 25.722656 0.21875 21.828125 0.21875 Z M 21.828125 -2.375 C 23.054688 -2.375 23.960938 -2.929688 24.546875 -4.046875 C 25.046875 -4.898438 25.382812 -6.410156 25.5625 -8.578125 C 25.65625 -9.722656 25.703125 -12.007812 25.703125 -15.4375 C 25.703125 -18.90625 25.625 -21.359375 25.46875 -22.796875 C 25.382812 -24.554688 25.066406 -25.890625 24.515625 -26.796875 C 23.921875 -27.910156 23.023438 -28.46875 21.828125 -28.46875 C 20.585938 -28.46875 19.660156 -27.910156 19.046875 -26.796875 C 18.546875 -25.910156 18.222656 -24.578125 18.078125 -22.796875 C 17.960938 -21.265625 17.90625 -18.8125 17.90625 -15.4375 C 17.90625 -11.625 17.953125 -9.335938 18.046875 -8.578125 C 18.160156 -6.554688 18.484375 -5.046875 19.015625 -4.046875 C 19.628906 -2.929688 20.566406 -2.375 21.828125 -2.375 Z M 21.828125 -2.375 "/></g></g></g><g fill="#000000" fill-opacity="1"><g transform="translate(296.799786, 202.905286)"><g><path d="M 1.234375 -30.796875 L 29.171875 -30.796875 C 31.753906 -30.796875 33.835938 -30.054688 35.421875 -28.578125 C 37.003906 -27.097656 37.796875 -25.097656 37.796875 -22.578125 C 37.796875 -21.078125 37.425781 -19.679688 36.6875 -18.390625 C 35.957031 -17.097656 34.945312 -16.070312 33.65625 -15.3125 C 32.363281 -14.550781 30.898438 -14.171875 29.265625 -14.171875 L 15.84375 -14.125 L 15.84375 0 L 1.234375 0 Z M 17.375 -16.671875 C 18.4375 -16.671875 19.410156 -16.925781 20.296875 -17.4375 C 21.191406 -17.957031 21.894531 -18.664062 22.40625 -19.5625 C 22.925781 -20.457031 23.1875 -21.414062 23.1875 -22.4375 C 23.1875 -23.5 22.925781 -24.472656 22.40625 -25.359375 C 21.894531 -26.253906 21.191406 -26.96875 20.296875 -27.5 C 19.410156 -28.03125 18.4375 -28.296875 17.375 -28.296875 L 15.84375 -28.296875 L 15.84375 -16.671875 Z M 17.375 -16.671875 "/></g></g></g><g fill="#000000" fill-opacity="1"><g transform="translate(187.499908, 264.503231)"><g/></g></g><g fill="#000000" fill-opacity="1"><g transform="translate(168.117136, 238.493508)"><g><path d="M 15.796875 -2.953125 L 15.796875 0 L 1.703125 0 L 2.734375 -1.03125 C 4.867188 -3.175781 6.535156 -4.90625 7.734375 -6.21875 C 8.929688 -7.539062 9.929688 -8.878906 10.734375 -10.234375 C 11.546875 -11.585938 11.953125 -12.875 11.953125 -14.09375 C 11.953125 -15.375 11.570312 -16.347656 10.8125 -17.015625 C 10.0625 -17.679688 9.140625 -18.015625 8.046875 -18.015625 C 7.191406 -18.015625 6.472656 -17.835938 5.890625 -17.484375 C 5.316406 -17.128906 4.898438 -16.675781 4.640625 -16.125 C 4.378906 -15.582031 4.25 -15.039062 4.25 -14.5 C 4.25 -13.15625 4.65625 -12.054688 5.46875 -11.203125 L 3.609375 -9.5 C 2.921875 -9.914062 2.363281 -10.617188 1.9375 -11.609375 C 1.507812 -12.609375 1.296875 -13.550781 1.296875 -14.4375 C 1.296875 -15.59375 1.582031 -16.664062 2.15625 -17.65625 C 2.726562 -18.65625 3.5625 -19.453125 4.65625 -20.046875 C 5.75 -20.648438 7.050781 -20.953125 8.5625 -20.953125 C 9.832031 -20.953125 10.96875 -20.648438 11.96875 -20.046875 C 12.96875 -19.453125 13.738281 -18.648438 14.28125 -17.640625 C 14.820312 -16.640625 15.09375 -15.539062 15.09375 -14.34375 C 15.09375 -13.144531 14.8125 -11.945312 14.25 -10.75 C 13.6875 -9.5625 12.988281 -8.441406 12.15625 -7.390625 C 11.332031 -6.335938 10.226562 -5.035156 8.84375 -3.484375 L 8.359375 -2.953125 Z M 15.796875 -2.953125 "/></g></g></g><g fill="#000000" fill-opacity="1"><g transform="translate(185.250645, 238.493508)"><g><path d="M 9.8125 0.09375 C 8.113281 0.09375 6.609375 -0.328125 5.296875 -1.171875 C 3.984375 -2.023438 2.957031 -3.25 2.21875 -4.84375 C 1.488281 -6.4375 1.125 -8.300781 1.125 -10.4375 C 1.125 -13.851562 1.894531 -16.457031 3.4375 -18.25 C 4.976562 -20.050781 7.101562 -20.941406 9.8125 -20.921875 C 11.507812 -20.921875 13.015625 -20.5 14.328125 -19.65625 C 15.640625 -18.820312 16.660156 -17.609375 17.390625 -16.015625 C 18.128906 -14.421875 18.5 -12.5625 18.5 -10.4375 C 18.5 -8.257812 18.128906 -6.375 17.390625 -4.78125 C 16.660156 -3.1875 15.640625 -1.96875 14.328125 -1.125 C 13.015625 -0.289062 11.507812 0.113281 9.8125 0.09375 Z M 9.78125 -2.828125 C 11.5625 -2.828125 12.925781 -3.519531 13.875 -4.90625 C 14.832031 -6.289062 15.320312 -8.15625 15.34375 -10.5 C 15.320312 -12.789062 14.832031 -14.609375 13.875 -15.953125 C 12.925781 -17.304688 11.5625 -17.984375 9.78125 -17.984375 C 8.019531 -17.984375 6.664062 -17.300781 5.71875 -15.9375 C 4.78125 -14.582031 4.300781 -12.75 4.28125 -10.4375 C 4.300781 -8.113281 4.78125 -6.265625 5.71875 -4.890625 C 6.664062 -3.515625 8.019531 -2.828125 9.78125 -2.828125 Z M 9.78125 -2.828125 "/></g></g></g><g fill="#000000" fill-opacity="1"><g transform="translate(204.86773, 238.493508)"><g><path d="M 15.796875 -2.953125 L 15.796875 0 L 1.703125 0 L 2.734375 -1.03125 C 4.867188 -3.175781 6.535156 -4.90625 7.734375 -6.21875 C 8.929688 -7.539062 9.929688 -8.878906 10.734375 -10.234375 C 11.546875 -11.585938 11.953125 -12.875 11.953125 -14.09375 C 11.953125 -15.375 11.570312 -16.347656 10.8125 -17.015625 C 10.0625 -17.679688 9.140625 -18.015625 8.046875 -18.015625 C 7.191406 -18.015625 6.472656 -17.835938 5.890625 -17.484375 C 5.316406 -17.128906 4.898438 -16.675781 4.640625 -16.125 C 4.378906 -15.582031 4.25 -15.039062 4.25 -14.5 C 4.25 -13.15625 4.65625 -12.054688 5.46875 -11.203125 L 3.609375 -9.5 C 2.921875 -9.914062 2.363281 -10.617188 1.9375 -11.609375 C 1.507812 -12.609375 1.296875 -13.550781 1.296875 -14.4375 C 1.296875 -15.59375 1.582031 -16.664062 2.15625 -17.65625 C 2.726562 -18.65625 3.5625 -19.453125 4.65625 -20.046875 C 5.75 -20.648438 7.050781 -20.953125 8.5625 -20.953125 C 9.832031 -20.953125 10.96875 -20.648438 11.96875 -20.046875 C 12.96875 -19.453125 13.738281 -18.648438 14.28125 -17.640625 C 14.820312 -16.640625 15.09375 -15.539062 15.09375 -14.34375 C 15.09375 -13.144531 14.8125 -11.945312 14.25 -10.75 C 13.6875 -9.5625 12.988281 -8.441406 12.15625 -7.390625 C 11.332031 -6.335938 10.226562 -5.035156 8.84375 -3.484375 L 8.359375 -2.953125 Z M 15.796875 -2.953125 "/></g></g></g><g fill="#000000" fill-opacity="1"><g transform="translate(222.001239, 238.493508)"><g><path d="M 15.796875 -2.953125 L 15.796875 0 L 1.703125 0 L 2.734375 -1.03125 C 4.867188 -3.175781 6.535156 -4.90625 7.734375 -6.21875 C 8.929688 -7.539062 9.929688 -8.878906 10.734375 -10.234375 C 11.546875 -11.585938 11.953125 -12.875 11.953125 -14.09375 C 11.953125 -15.375 11.570312 -16.347656 10.8125 -17.015625 C 10.0625 -17.679688 9.140625 -18.015625 8.046875 -18.015625 C 7.191406 -18.015625 6.472656 -17.835938 5.890625 -17.484375 C 5.316406 -17.128906 4.898438 -16.675781 4.640625 -16.125 C 4.378906 -15.582031 4.25 -15.039062 4.25 -14.5 C 4.25 -13.15625 4.65625 -12.054688 5.46875 -11.203125 L 3.609375 -9.5 C 2.921875 -9.914062 2.363281 -10.617188 1.9375 -11.609375 C 1.507812 -12.609375 1.296875 -13.550781 1.296875 -14.4375 C 1.296875 -15.59375 1.582031 -16.664062 2.15625 -17.65625 C 2.726562 -18.65625 3.5625 -19.453125 4.65625 -20.046875 C 5.75 -20.648438 7.050781 -20.953125 8.5625 -20.953125 C 9.832031 -20.953125 10.96875 -20.648438 11.96875 -20.046875 C 12.96875 -19.453125 13.738281 -18.648438 14.28125 -17.640625 C 14.820312 -16.640625 15.09375 -15.539062 15.09375 -14.34375 C 15.09375 -13.144531 14.8125 -11.945312 14.25 -10.75 C 13.6875 -9.5625 12.988281 -8.441406 12.15625 -7.390625 C 11.332031 -6.335938 10.226562 -5.035156 8.84375 -3.484375 L 8.359375 -2.953125 Z M 15.796875 -2.953125 "/></g></g></g><path stroke-linecap="round" transform="matrix(1.191039, 0, 0, 1.189945, 7.927987, 184.90115)" fill="none" stroke-linejoin="miter" d="M 2.500558 2.49915 L 14.497697 2.49915 " stroke="#000000" stroke-width="5" stroke-opacity="1" stroke-miterlimit="4"/><path stroke-linecap="round" transform="matrix(1.193978, 0, 0, 1.189945, 7.927987, 231.076127)" fill="none" stroke-linejoin="miter" d="M 2.500946 2.499826 L 71.257439 2.499826 " stroke="#000000" stroke-width="5" stroke-opacity="1" stroke-miterlimit="4"/><path stroke-linecap="round" transform="matrix(0.000000000000000072, -1.181592, 1.189945, 0.000000000000000073, 7.923564, 237.021431)" fill="none" stroke-linejoin="miter" d="M 2.500883 2.50001 L 39.804883 2.50001 " stroke="#000000" stroke-width="5" stroke-opacity="1" stroke-miterlimit="4"/><path stroke-linecap="round" transform="matrix(1.191039, 0, 0, 1.189945, 346.844103, 181.926288)" fill="none" stroke-linejoin="miter" d="M 2.498834 2.501004 L 14.499252 2.501004 " stroke="#000000" stroke-width="5" stroke-opacity="1" stroke-miterlimit="4"/><path stroke-linecap="round" transform="matrix(1.193978, 0, 0, 1.189945, 276.329722, 228.101265)" fill="none" stroke-linejoin="miter" d="M 2.501456 2.498397 L 71.257949 2.498397 " stroke="#000000" stroke-width="5" stroke-opacity="1" stroke-miterlimit="4"/><path stroke-linecap="round" transform="matrix(0.000000000000000072, -1.181592, 1.189945, 0.000000000000000073, 361.117831, 234.046566)" fill="none" stroke-linejoin="miter" d="M 2.499014 2.500889 L 39.803014 2.500889 " stroke="#000000" stroke-width="5" stroke-opacity="1" stroke-miterlimit="4"/><g fill="#000000" fill-opacity="1"><g transform="translate(128.680987, 235.616688)"><g><path d="M 7.71875 -7.75 L 2.734375 -7.75 L 2.734375 -5.28125 L 7.203125 -5.28125 L 7.203125 -3.90625 L 2.734375 -3.90625 L 2.734375 -1.390625 L 7.875 -1.390625 L 7.875 0 L 1.203125 0 L 1.203125 -9.140625 L 7.71875 -9.140625 Z M 7.71875 -7.75 "/></g></g></g><g fill="#000000" fill-opacity="1"><g transform="translate(140.26509, 235.616688)"><g><path d="M 4.203125 -9.203125 C 5.378906 -9.203125 6.441406 -8.890625 7.390625 -8.265625 L 6.765625 -6.90625 C 5.828125 -7.46875 4.929688 -7.75 4.078125 -7.75 C 3.617188 -7.75 3.253906 -7.664062 2.984375 -7.5 C 2.722656 -7.332031 2.59375 -7.097656 2.59375 -6.796875 C 2.59375 -6.492188 2.710938 -6.234375 2.953125 -6.015625 C 3.203125 -5.804688 3.507812 -5.648438 3.875 -5.546875 C 4.238281 -5.453125 4.632812 -5.328125 5.0625 -5.171875 C 5.488281 -5.015625 5.882812 -4.851562 6.25 -4.6875 C 6.613281 -4.519531 6.914062 -4.253906 7.15625 -3.890625 C 7.394531 -3.535156 7.515625 -3.097656 7.515625 -2.578125 C 7.515625 -1.785156 7.191406 -1.148438 6.546875 -0.671875 C 5.910156 -0.191406 5.085938 0.046875 4.078125 0.046875 C 3.378906 0.046875 2.703125 -0.0820312 2.046875 -0.34375 C 1.390625 -0.601562 0.820312 -0.953125 0.34375 -1.390625 L 1 -2.734375 C 1.46875 -2.304688 1.976562 -1.972656 2.53125 -1.734375 C 3.082031 -1.503906 3.601562 -1.390625 4.09375 -1.390625 C 4.632812 -1.390625 5.054688 -1.488281 5.359375 -1.6875 C 5.660156 -1.882812 5.8125 -2.15625 5.8125 -2.5 C 5.8125 -2.8125 5.6875 -3.070312 5.4375 -3.28125 C 5.195312 -3.5 4.894531 -3.660156 4.53125 -3.765625 C 4.164062 -3.867188 3.769531 -3.988281 3.34375 -4.125 C 2.914062 -4.269531 2.519531 -4.421875 2.15625 -4.578125 C 1.789062 -4.742188 1.484375 -5.003906 1.234375 -5.359375 C 0.992188 -5.710938 0.875 -6.144531 0.875 -6.65625 C 0.875 -7.425781 1.175781 -8.039062 1.78125 -8.5 C 2.394531 -8.96875 3.203125 -9.203125 4.203125 -9.203125 Z M 4.203125 -9.203125 "/></g></g></g><g fill="#000000" fill-opacity="1"><g transform="translate(151.405654, 235.616688)"><g><path d="M 7.4375 -7.75 L 4.546875 -7.75 L 4.546875 0 L 3 0 L 3 -7.75 L 0.125 -7.75 L 0.125 -9.140625 L 7.4375 -9.140625 Z M 7.4375 -7.75 "/></g></g></g><g fill="#000000" fill-opacity="1"><g transform="translate(161.985272, 235.616688)"><g><path d="M 0.828125 -1.359375 C 0.984375 -1.523438 1.179688 -1.609375 1.421875 -1.609375 C 1.660156 -1.609375 1.859375 -1.523438 2.015625 -1.359375 C 2.171875 -1.203125 2.25 -1 2.25 -0.75 C 2.25 -0.5 2.171875 -0.289062 2.015625 -0.125 C 1.859375 0.0390625 1.660156 0.125 1.421875 0.125 C 1.179688 0.125 0.984375 0.0390625 0.828125 -0.125 C 0.671875 -0.289062 0.59375 -0.5 0.59375 -0.75 C 0.59375 -1 0.671875 -1.203125 0.828125 -1.359375 Z M 0.828125 -1.359375 "/></g></g></g></svg>