<svg xmlns="http://www.w3.org/2000/svg" xmlns:xlink="http://www.w3.org/1999/xlink" width="1920" zoomAndPan="magnify" viewBox="0 0 1440 809.999993" height="1080" preserveAspectRatio="xMidYMid meet" version="1.0"><defs><g/></defs><g fill="#000000" fill-opacity="1"><g transform="translate(67.230339, 557.233901)"><g><path d="M 0 -263.308594 C 0 -261.03125 0 -258.296875 0 -255.566406 C 0.910156 -254.652344 2.734375 -253.742188 3.644531 -252.832031 C 8.65625 -243.265625 16.855469 -241.441406 26.421875 -243.71875 C 30.976562 -244.632812 35.078125 -246 39.632812 -246.910156 C 50.566406 -248.730469 61.5 -251.464844 72.886719 -250.554688 C 72.886719 -245.085938 73.34375 -240.074219 72.886719 -235.066406 C 71.976562 -208.644531 70.609375 -181.765625 69.699219 -155.34375 C 68.332031 -121.175781 67.421875 -87.464844 65.597656 -53.753906 C 65.144531 -41 68.789062 -29.15625 73.800781 -17.765625 C 77.445312 -8.65625 84.277344 -2.734375 94.300781 -1.820312 C 105.234375 -0.910156 113.433594 -5.011719 118.898438 -14.121094 C 124.820312 -23.6875 129.375 -34.167969 129.832031 -45.554688 C 130.742188 -76.53125 132.566406 -107.054688 131.65625 -138.03125 C 130.289062 -169.011719 129.375 -200.441406 125.730469 -231.421875 C 124.820312 -239.164062 123.910156 -246.910156 123 -254.652344 C 124.820312 -255.109375 126.1875 -255.566406 127.554688 -255.566406 C 136.664062 -256.019531 145.777344 -256.476562 154.886719 -256.476562 C 168.554688 -256.929688 182.675781 -256.929688 196.34375 -257.386719 C 205 -257.84375 212.289062 -261.03125 218.210938 -267.410156 C 225.042969 -275.152344 225.953125 -285.632812 220.488281 -294.285156 C 215.929688 -302.03125 208.644531 -306.585938 199.988281 -307.042969 C 190.421875 -307.496094 181.308594 -307.953125 171.742188 -307.496094 C 152.609375 -306.585938 133.019531 -305.21875 113.886719 -303.398438 C 105.6875 -302.488281 97.488281 -300.207031 89.289062 -298.84375 C 67.878906 -294.285156 46.011719 -290.640625 25.964844 -282.441406 C 16.398438 -278.796875 7.289062 -274.699219 2.734375 -265.132812 C 2.277344 -264.21875 0.910156 -263.765625 0 -263.308594 Z M 105.6875 -12.753906 C 97.945312 -10.933594 93.386719 -13.667969 88.832031 -16.855469 C 81.542969 -22.320312 74.710938 -41.457031 77.898438 -56.488281 C 79.265625 -54.210938 80.175781 -52.84375 80.632812 -51.476562 C 82 -47.378906 83.367188 -43.277344 84.734375 -39.175781 C 87.011719 -29.609375 92.023438 -21.867188 101.132812 -17.3125 C 102.5 -16.398438 103.410156 -14.578125 105.6875 -12.753906 Z M 184.953125 -266.042969 C 191.789062 -269.6875 197.710938 -271.507812 202.265625 -275.609375 C 206.363281 -278.796875 209.097656 -284.265625 212.742188 -288.820312 C 215.929688 -285.632812 215.929688 -281.53125 211.375 -275.152344 C 205 -266.042969 195.433594 -262.398438 184.953125 -266.042969 Z M 39.175781 -253.742188 C 31.886719 -246.910156 20.5 -247.363281 14.121094 -253.285156 C 9.109375 -257.84375 8.65625 -263.765625 13.667969 -269.6875 C 14.578125 -267.863281 15.488281 -266.496094 15.488281 -265.132812 C 16.398438 -258.296875 20.957031 -255.566406 26.878906 -254.652344 C 30.976562 -254.199219 35.078125 -254.199219 39.175781 -253.742188 Z M 39.175781 -253.742188 "/></g></g></g><g fill="#000000" fill-opacity="1"><g transform="translate(305.028042, 557.233901)"><g><path d="M 0 -111.15625 C 0 -106.144531 0 -101.589844 0 -97.03125 C 0.457031 -95.210938 0.910156 -93.84375 1.367188 -92.023438 C 2.277344 -86.097656 2.734375 -79.722656 5.011719 -74.253906 C 8.65625 -63.320312 20.957031 -57.398438 32.34375 -60.132812 C 43.734375 -62.867188 49.65625 -71.066406 51.476562 -82 C 53.300781 -91.109375 53.300781 -100.222656 54.667969 -109.789062 C 54.667969 -111.609375 56.03125 -114.34375 57.398438 -114.34375 C 65.144531 -115.710938 73.34375 -115.710938 81.089844 -116.621094 C 84.277344 -116.621094 85.1875 -115.253906 85.1875 -112.519531 C 85.1875 -97.945312 85.644531 -83.820312 86.097656 -69.242188 C 86.097656 -65.144531 85.644531 -61.5 86.097656 -57.855469 C 86.097656 -46.921875 95.210938 -36.898438 106.144531 -36.445312 C 117.988281 -35.53125 128.921875 -43.277344 130.289062 -54.667969 C 131.65625 -66.511719 132.566406 -78.355469 133.019531 -90.199219 C 133.476562 -109.332031 130.742188 -204.542969 129.375 -218.664062 C 128.464844 -224.585938 127.554688 -230.964844 124.820312 -235.976562 C 120.722656 -244.632812 110.699219 -248.277344 101.589844 -246.453125 C 92.476562 -244.175781 85.644531 -235.066406 85.1875 -225.5 C 84.734375 -214.109375 84.277344 -202.71875 84.277344 -191.332031 C 83.820312 -182.675781 84.277344 -173.566406 84.277344 -164.453125 C 84.277344 -162.632812 83.820312 -161.265625 83.820312 -158.988281 C 74.253906 -158.53125 65.144531 -157.621094 56.03125 -157.164062 C 55.121094 -167.1875 54.667969 -176.296875 53.753906 -185.863281 C 52.386719 -194.519531 51.933594 -203.175781 46.464844 -210.464844 C 41 -218.210938 32.800781 -221.398438 23.6875 -219.574219 C 14.578125 -218.210938 8.199219 -212.742188 6.378906 -203.175781 C 5.011719 -193.152344 3.644531 -183.132812 3.1875 -173.109375 C 2.277344 -161.265625 2.734375 -149.421875 2.277344 -137.121094 C 1.820312 -129.375 1.820312 -121.632812 1.367188 -113.433594 C 1.367188 -112.976562 0.457031 -112.066406 0 -111.15625 Z M 111.15625 -46.011719 C 106.597656 -44.1875 103.410156 -45.554688 100.222656 -47.832031 C 93.84375 -52.84375 89.289062 -67.878906 92.476562 -75.621094 C 92.933594 -76.078125 93.84375 -76.53125 94.300781 -77.445312 C 95.210938 -76.53125 96.121094 -76.078125 96.121094 -75.167969 C 96.578125 -73.34375 97.03125 -71.523438 97.03125 -70.15625 C 98.855469 -61.953125 101.132812 -54.210938 108.421875 -49.199219 C 109.332031 -48.742188 109.789062 -47.378906 111.15625 -46.011719 Z M 9.109375 -93.84375 C 9.566406 -94.300781 9.109375 -95.210938 9.566406 -95.664062 C 9.566406 -96.578125 10.476562 -97.03125 10.933594 -97.945312 C 11.390625 -97.03125 12.300781 -96.578125 12.753906 -96.121094 C 14.578125 -92.476562 15.488281 -88.832031 17.3125 -85.1875 C 20.5 -79.265625 25.511719 -75.167969 31.433594 -72.433594 C 32.34375 -71.976562 32.800781 -70.609375 33.710938 -69.699219 C 32.34375 -69.242188 31.433594 -67.878906 30.066406 -68.332031 C 26.878906 -68.789062 23.6875 -69.242188 20.957031 -71.066406 C 14.578125 -75.167969 9.566406 -85.644531 9.109375 -93.84375 Z M 95.210938 -213.652344 C 90.65625 -225.042969 97.03125 -238.710938 107.054688 -240.53125 C 107.964844 -240.53125 109.332031 -240.074219 110.699219 -240.074219 C 110.242188 -238.710938 110.242188 -236.886719 109.332031 -236.429688 C 102.5 -232.785156 100.675781 -225.5 97.945312 -218.664062 C 97.488281 -217.296875 96.578125 -215.929688 95.210938 -213.652344 Z M 15.945312 -187.230469 C 11.84375 -194.066406 15.035156 -205.910156 22.320312 -210.464844 C 24.144531 -211.832031 26.421875 -212.742188 28.699219 -213.199219 C 29.609375 -213.652344 30.523438 -212.742188 30.976562 -212.289062 C 31.433594 -211.832031 30.976562 -210.921875 30.523438 -210.464844 C 22.777344 -205.453125 20.042969 -197.710938 17.3125 -189.507812 C 17.3125 -189.054688 16.398438 -188.144531 15.945312 -187.230469 Z M 15.945312 -187.230469 "/></g></g></g><g fill="#000000" fill-opacity="1"><g transform="translate(452.171061, 557.233901)"><g><path d="M 47.832031 -57.398438 C 47.832031 -56.945312 47.832031 -56.945312 47.832031 -56.488281 C 68.332031 -57.855469 89.289062 -58.765625 109.789062 -59.675781 C 120.722656 -60.589844 130.742188 -70.609375 131.65625 -82 C 132.109375 -92.476562 124.367188 -104.320312 113.886719 -105.6875 C 102.5 -107.054688 91.109375 -107.511719 79.265625 -106.597656 C 65.144531 -105.234375 51.023438 -102.953125 37.355469 -100.222656 C 28.699219 -98.855469 20.5 -96.578125 12.753906 -93.386719 C 5.011719 -90.199219 0 -83.367188 0.457031 -75.167969 C 0.910156 -62.867188 10.476562 -56.488281 20.957031 -56.488281 C 30.066406 -56.03125 38.722656 -56.945312 47.832031 -57.398438 Z M 122.542969 -86.554688 C 122.542969 -76.53125 118.445312 -70.609375 111.609375 -68.332031 C 110.242188 -68.332031 108.875 -68.789062 107.511719 -69.242188 C 107.964844 -70.15625 108.421875 -71.976562 109.332031 -72.886719 C 114.800781 -77.445312 116.621094 -83.820312 116.621094 -90.65625 C 116.621094 -92.023438 117.53125 -93.386719 117.988281 -94.753906 C 119.355469 -93.386719 120.722656 -92.476562 121.175781 -91.109375 C 122.089844 -89.289062 122.089844 -87.464844 122.542969 -86.554688 Z M 27.332031 -63.320312 C 22.320312 -62.410156 18.222656 -61.953125 15.035156 -64.6875 C 10.476562 -69.699219 8.199219 -75.167969 10.023438 -82 C 10.476562 -83.367188 11.84375 -84.277344 12.300781 -85.1875 C 13.210938 -83.820312 13.667969 -82.910156 14.121094 -82 C 15.035156 -75.167969 18.675781 -70.15625 24.144531 -66.054688 C 25.054688 -65.597656 25.511719 -64.6875 27.332031 -63.320312 Z M 97.03125 -246.910156 C 92.023438 -246.453125 86.554688 -246.453125 81.542969 -245.542969 C 69.699219 -244.175781 57.398438 -242.355469 45.554688 -240.53125 C 34.621094 -239.164062 24.144531 -236.429688 14.578125 -230.964844 C 7.289062 -227.320312 3.644531 -217.296875 4.554688 -211.375 C 6.378906 -198.621094 15.488281 -190.421875 28.246094 -192.242188 C 38.722656 -193.609375 49.199219 -195.433594 59.675781 -195.886719 C 69.242188 -196.34375 78.808594 -198.164062 88.378906 -199.988281 C 96.578125 -201.355469 104.320312 -202.265625 112.066406 -204.542969 C 120.265625 -207.277344 125.730469 -214.109375 126.1875 -222.765625 C 126.644531 -230.507812 123 -237.34375 116.164062 -241.898438 C 110.242188 -246 103.867188 -246.910156 97.03125 -246.910156 Z M 27.332031 -199.53125 C 21.410156 -198.621094 17.765625 -200.441406 14.578125 -207.277344 C 11.84375 -212.289062 11.84375 -216.84375 14.121094 -219.121094 C 18.222656 -212.742188 22.777344 -206.363281 27.332031 -199.53125 Z M 103.410156 -210.464844 C 103.867188 -210.921875 103.410156 -211.832031 103.867188 -211.832031 C 108.875 -216.386719 112.066406 -222.308594 112.976562 -229.144531 C 112.976562 -230.054688 114.34375 -230.964844 114.800781 -230.964844 C 115.710938 -231.421875 116.621094 -230.054688 117.078125 -229.597656 C 119.808594 -222.765625 112.976562 -211.375 105.6875 -210.007812 C 104.777344 -210.007812 104.320312 -210.007812 103.410156 -210.464844 Z M 4.554688 -138.03125 C 4.554688 -134.386719 6.832031 -128.921875 12.300781 -126.1875 C 15.945312 -124.367188 20.042969 -123.453125 23.6875 -123 C 29.609375 -122.089844 35.078125 -121.632812 41 -121.632812 C 49.199219 -122.089844 57.398438 -123 66.054688 -123.910156 C 74.710938 -124.820312 83.820312 -125.277344 92.476562 -127.097656 C 105.234375 -129.375 110.699219 -136.210938 111.15625 -146.6875 C 111.609375 -158.988281 96.578125 -170.375 84.734375 -168.097656 C 73.34375 -166.277344 61.5 -164.910156 50.109375 -164 C 38.265625 -163.542969 26.878906 -161.265625 15.945312 -157.164062 C 9.109375 -154.433594 4.554688 -148.054688 4.554688 -138.03125 Z M 98.855469 -158.53125 C 103.410156 -154.886719 104.320312 -148.054688 102.042969 -142.132812 C 100.222656 -136.664062 95.664062 -133.476562 90.199219 -133.933594 C 96.121094 -140.765625 99.308594 -148.511719 98.855469 -158.53125 Z M 17.3125 -150.332031 C 16.398438 -141.222656 20.957031 -134.84375 26.878906 -128.921875 C 21.410156 -128.011719 16.855469 -130.742188 14.578125 -135.753906 C 12.300781 -140.765625 13.210938 -146.6875 17.3125 -150.332031 Z M 17.3125 -150.332031 "/></g></g></g><g fill="#000000" fill-opacity="1"><g transform="translate(597.947425, 557.233901)"><g/></g></g><g fill="#000000" fill-opacity="1"><g transform="translate(711.835188, 557.233901)"><g><path d="M 236.429688 -260.121094 C 236.429688 -266.042969 236.429688 -271.964844 236.429688 -277.886719 C 235.976562 -278.34375 234.609375 -279.253906 234.609375 -280.164062 C 233.242188 -286.996094 229.144531 -292.464844 225.042969 -297.476562 C 214.566406 -309.320312 199.988281 -312.054688 185.863281 -314.332031 C 162.175781 -317.976562 140.308594 -312.054688 118.445312 -303.851562 C 85.1875 -290.640625 56.945312 -269.6875 33.253906 -242.808594 C 20.5 -227.777344 9.566406 -211.375 3.1875 -192.242188 C -3.1875 -171.742188 0 -153.066406 13.210938 -135.753906 C 23.6875 -122.089844 38.722656 -114.34375 54.210938 -108.421875 C 66.964844 -103.867188 79.722656 -100.675781 92.023438 -96.578125 C 94.753906 -95.664062 97.488281 -94.753906 102.042969 -93.386719 C 97.945312 -90.199219 95.210938 -87.921875 92.476562 -86.097656 C 82 -77.898438 73.800781 -68.332031 66.964844 -57.398438 C 54.667969 -37.8125 60.589844 -16.398438 80.632812 -6.832031 C 96.121094 0.910156 112.519531 5.011719 129.832031 5.011719 C 158.988281 5.011719 185.410156 -5.011719 207.730469 -23.6875 C 230.964844 -42.367188 235.066406 -72.886719 219.574219 -98.398438 C 211.832031 -110.699219 201.355469 -118.898438 189.507812 -126.1875 C 172.652344 -136.664062 154.433594 -142.585938 136.210938 -149.421875 C 120.265625 -154.886719 103.867188 -160.355469 87.921875 -166.277344 C 77.898438 -169.921875 73.800781 -176.753906 74.253906 -187.6875 C 74.253906 -191.789062 75.167969 -196.34375 76.988281 -199.988281 C 80.175781 -205.453125 83.820312 -210.921875 87.921875 -215.929688 C 100.675781 -232.785156 116.621094 -246 133.933594 -256.929688 C 147.597656 -265.585938 161.722656 -272.421875 178.121094 -274.699219 C 189.964844 -276.066406 199.078125 -271.054688 203.632812 -259.664062 C 204.542969 -258.296875 205 -256.929688 205.910156 -255.566406 C 209.097656 -249.640625 214.109375 -247.363281 220.488281 -247.363281 C 226.863281 -247.363281 230.964844 -250.554688 234.152344 -256.019531 C 234.609375 -257.386719 235.519531 -258.753906 236.429688 -260.121094 Z M 95.664062 -42.367188 C 98.855469 -49.199219 103.867188 -54.667969 109.789062 -58.765625 C 120.265625 -66.054688 131.199219 -72.886719 142.132812 -79.722656 C 145.777344 -82.453125 148.964844 -82.453125 152.609375 -80.632812 C 158.988281 -76.53125 165.820312 -73.34375 171.742188 -68.789062 C 176.296875 -65.597656 176.753906 -61.953125 172.652344 -58.765625 C 150.789062 -41.910156 126.644531 -32.800781 98.855469 -39.632812 C 98.398438 -39.632812 97.945312 -40.089844 97.488281 -40.542969 C 97.03125 -40.542969 96.578125 -41 95.664062 -42.367188 Z M 46.011719 -127.097656 C 43.277344 -128.011719 40.089844 -128.464844 37.8125 -129.832031 C 30.066406 -134.386719 23.6875 -140.308594 19.589844 -148.511719 C 13.210938 -162.632812 10.933594 -176.753906 17.3125 -191.789062 C 17.765625 -190.421875 18.222656 -189.054688 18.222656 -187.6875 C 18.675781 -181.765625 18.222656 -175.84375 19.132812 -169.921875 C 20.957031 -157.621094 26.878906 -147.144531 36.445312 -138.941406 C 40.089844 -135.753906 43.277344 -132.566406 46.921875 -129.375 C 46.464844 -128.921875 46.011719 -128.011719 46.011719 -127.097656 Z M 85.644531 -14.578125 C 78.355469 -14.578125 72.433594 -20.5 69.699219 -30.523438 C 66.054688 -42.820312 69.242188 -54.210938 77.445312 -59.222656 C 73.34375 -34.621094 69.699219 -39.632812 85.644531 -14.578125 Z M 204.542969 -276.976562 C 207.730469 -272.875 210.921875 -268.320312 214.109375 -264.675781 C 217.753906 -260.121094 223.21875 -259.664062 229.144531 -260.121094 C 225.042969 -254.652344 220.941406 -253.285156 215.929688 -255.566406 C 213.199219 -257.386719 210.464844 -259.210938 208.644531 -261.941406 C 205.910156 -266.042969 204.085938 -271.054688 202.265625 -275.152344 C 202.71875 -276.066406 203.632812 -276.519531 204.542969 -276.976562 Z M 179.03125 -53.753906 C 183.132812 -67.878906 183.132812 -67.878906 175.386719 -79.265625 C 181.765625 -79.722656 185.863281 -76.988281 187.6875 -71.066406 C 189.964844 -64.234375 187.230469 -58.3125 179.03125 -53.753906 Z M 179.03125 -53.753906 "/></g></g></g><g fill="#000000" fill-opacity="1"><g transform="translate(961.932761, 557.233901)"><g><path d="M 0 -111.15625 C 0 -106.144531 0 -101.589844 0 -97.03125 C 0.457031 -95.210938 0.910156 -93.84375 1.367188 -92.023438 C 2.277344 -86.097656 2.734375 -79.722656 5.011719 -74.253906 C 8.65625 -63.320312 20.957031 -57.398438 32.34375 -60.132812 C 43.734375 -62.867188 49.65625 -71.066406 51.476562 -82 C 53.300781 -91.109375 53.300781 -100.222656 54.667969 -109.789062 C 54.667969 -111.609375 56.03125 -114.34375 57.398438 -114.34375 C 65.144531 -115.710938 73.34375 -115.710938 81.089844 -116.621094 C 84.277344 -116.621094 85.1875 -115.253906 85.1875 -112.519531 C 85.1875 -97.945312 85.644531 -83.820312 86.097656 -69.242188 C 86.097656 -65.144531 85.644531 -61.5 86.097656 -57.855469 C 86.097656 -46.921875 95.210938 -36.898438 106.144531 -36.445312 C 117.988281 -35.53125 128.921875 -43.277344 130.289062 -54.667969 C 131.65625 -66.511719 132.566406 -78.355469 133.019531 -90.199219 C 133.476562 -109.332031 130.742188 -204.542969 129.375 -218.664062 C 128.464844 -224.585938 127.554688 -230.964844 124.820312 -235.976562 C 120.722656 -244.632812 110.699219 -248.277344 101.589844 -246.453125 C 92.476562 -244.175781 85.644531 -235.066406 85.1875 -225.5 C 84.734375 -214.109375 84.277344 -202.71875 84.277344 -191.332031 C 83.820312 -182.675781 84.277344 -173.566406 84.277344 -164.453125 C 84.277344 -162.632812 83.820312 -161.265625 83.820312 -158.988281 C 74.253906 -158.53125 65.144531 -157.621094 56.03125 -157.164062 C 55.121094 -167.1875 54.667969 -176.296875 53.753906 -185.863281 C 52.386719 -194.519531 51.933594 -203.175781 46.464844 -210.464844 C 41 -218.210938 32.800781 -221.398438 23.6875 -219.574219 C 14.578125 -218.210938 8.199219 -212.742188 6.378906 -203.175781 C 5.011719 -193.152344 3.644531 -183.132812 3.1875 -173.109375 C 2.277344 -161.265625 2.734375 -149.421875 2.277344 -137.121094 C 1.820312 -129.375 1.820312 -121.632812 1.367188 -113.433594 C 1.367188 -112.976562 0.457031 -112.066406 0 -111.15625 Z M 111.15625 -46.011719 C 106.597656 -44.1875 103.410156 -45.554688 100.222656 -47.832031 C 93.84375 -52.84375 89.289062 -67.878906 92.476562 -75.621094 C 92.933594 -76.078125 93.84375 -76.53125 94.300781 -77.445312 C 95.210938 -76.53125 96.121094 -76.078125 96.121094 -75.167969 C 96.578125 -73.34375 97.03125 -71.523438 97.03125 -70.15625 C 98.855469 -61.953125 101.132812 -54.210938 108.421875 -49.199219 C 109.332031 -48.742188 109.789062 -47.378906 111.15625 -46.011719 Z M 9.109375 -93.84375 C 9.566406 -94.300781 9.109375 -95.210938 9.566406 -95.664062 C 9.566406 -96.578125 10.476562 -97.03125 10.933594 -97.945312 C 11.390625 -97.03125 12.300781 -96.578125 12.753906 -96.121094 C 14.578125 -92.476562 15.488281 -88.832031 17.3125 -85.1875 C 20.5 -79.265625 25.511719 -75.167969 31.433594 -72.433594 C 32.34375 -71.976562 32.800781 -70.609375 33.710938 -69.699219 C 32.34375 -69.242188 31.433594 -67.878906 30.066406 -68.332031 C 26.878906 -68.789062 23.6875 -69.242188 20.957031 -71.066406 C 14.578125 -75.167969 9.566406 -85.644531 9.109375 -93.84375 Z M 95.210938 -213.652344 C 90.65625 -225.042969 97.03125 -238.710938 107.054688 -240.53125 C 107.964844 -240.53125 109.332031 -240.074219 110.699219 -240.074219 C 110.242188 -238.710938 110.242188 -236.886719 109.332031 -236.429688 C 102.5 -232.785156 100.675781 -225.5 97.945312 -218.664062 C 97.488281 -217.296875 96.578125 -215.929688 95.210938 -213.652344 Z M 15.945312 -187.230469 C 11.84375 -194.066406 15.035156 -205.910156 22.320312 -210.464844 C 24.144531 -211.832031 26.421875 -212.742188 28.699219 -213.199219 C 29.609375 -213.652344 30.523438 -212.742188 30.976562 -212.289062 C 31.433594 -211.832031 30.976562 -210.921875 30.523438 -210.464844 C 22.777344 -205.453125 20.042969 -197.710938 17.3125 -189.507812 C 17.3125 -189.054688 16.398438 -188.144531 15.945312 -187.230469 Z M 15.945312 -187.230469 "/></g></g></g><g fill="#000000" fill-opacity="1"><g transform="translate(1109.075781, 557.233901)"><g><path d="M 24.601562 -195.886719 C 20.957031 -192.699219 16.398438 -189.507812 13.210938 -185.410156 C 0.910156 -167.644531 -1.820312 -147.144531 1.367188 -126.644531 C 4.554688 -106.597656 15.945312 -92.023438 35.078125 -84.277344 C 42.820312 -81.542969 51.023438 -79.722656 59.222656 -82 C 76.988281 -86.097656 86.554688 -98.855469 93.386719 -113.886719 C 97.945312 -123.453125 99.765625 -134.84375 101.589844 -145.320312 C 103.867188 -157.164062 104.320312 -169.464844 101.589844 -181.308594 C 97.488281 -200.441406 89.742188 -217.296875 71.976562 -227.777344 C 57.855469 -236.429688 42.820312 -240.074219 26.878906 -235.066406 C 15.035156 -230.964844 9.109375 -218.210938 14.578125 -207.730469 C 16.855469 -203.175781 21.410156 -199.53125 24.601562 -195.886719 Z M 49.199219 -190.421875 C 56.488281 -187.6875 59.675781 -181.765625 61.953125 -175.84375 C 65.597656 -164 65.144531 -152.609375 62.867188 -140.765625 C 61.953125 -133.476562 59.675781 -126.644531 54.210938 -121.175781 C 51.476562 -118.445312 50.109375 -118.898438 47.378906 -121.175781 C 41.910156 -126.644531 41.457031 -133.933594 41.910156 -140.765625 C 42.367188 -147.144531 43.277344 -153.976562 44.644531 -160.355469 C 44.644531 -161.722656 45.554688 -163.542969 46.464844 -164.910156 C 52.386719 -172.652344 54.667969 -180.855469 49.199219 -190.421875 Z M 12.300781 -135.300781 C 12.753906 -134.386719 13.210938 -133.476562 13.210938 -132.566406 C 16.398438 -119.355469 23.6875 -109.332031 33.710938 -100.675781 C 39.175781 -95.664062 46.011719 -93.84375 53.300781 -92.476562 C 54.667969 -92.023438 56.03125 -90.65625 56.945312 -89.742188 C 55.578125 -89.289062 54.210938 -87.921875 52.84375 -87.921875 C 41 -87.921875 30.976562 -92.476562 23.234375 -101.132812 C 16.398438 -109.332031 11.84375 -118.445312 10.476562 -128.921875 C 10.476562 -130.742188 10.476562 -133.019531 10.476562 -135.300781 C 11.390625 -135.300781 11.84375 -135.300781 12.300781 -135.300781 Z M 70.15625 -137.578125 C 70.15625 -153.066406 70.15625 -167.644531 70.15625 -182.222656 C 77.898438 -177.210938 78.808594 -143.953125 70.15625 -137.578125 Z M 32.34375 -202.71875 C 26.878906 -204.085938 23.234375 -207.730469 21.867188 -213.199219 C 20.5 -218.210938 21.410156 -223.675781 25.511719 -227.777344 C 26.421875 -228.230469 27.789062 -228.230469 29.15625 -228.6875 C 29.15625 -227.777344 29.15625 -226.410156 28.699219 -225.5 C 25.964844 -219.574219 27.789062 -214.109375 30.976562 -208.644531 C 31.886719 -206.820312 32.800781 -205 33.710938 -203.632812 C 33.253906 -203.175781 32.800781 -202.71875 32.34375 -202.71875 Z M 32.34375 -202.71875 "/></g></g></g><g fill="#000000" fill-opacity="1"><g transform="translate(1226.608046, 557.233901)"><g><path d="M 1.367188 -115.710938 C 1.820312 -115.710938 1.820312 -115.710938 2.277344 -115.710938 C 2.277344 -97.488281 2.277344 -79.722656 2.277344 -61.5 C 2.277344 -58.765625 2.734375 -56.03125 3.1875 -53.300781 C 5.921875 -43.277344 15.035156 -32.34375 32.34375 -33.710938 C 42.820312 -34.621094 52.84375 -43.734375 54.667969 -55.121094 C 55.121094 -61.5 54.667969 -67.878906 54.667969 -74.253906 C 54.667969 -76.988281 53.300781 -80.632812 58.3125 -81.089844 C 68.789062 -82.453125 77.898438 -87.011719 87.011719 -92.023438 C 106.597656 -102.5 120.265625 -118.445312 127.554688 -139.398438 C 132.566406 -153.066406 133.019531 -167.1875 130.289062 -181.765625 C 127.097656 -202.265625 116.621094 -218.210938 100.675781 -230.964844 C 85.1875 -243.71875 66.964844 -248.277344 47.378906 -246.453125 C 35.988281 -245.085938 25.054688 -242.808594 15.035156 -237.34375 C 5.921875 -232.332031 -3.1875 -219.574219 1.820312 -207.730469 C 2.277344 -206.363281 2.277344 -204.542969 2.277344 -203.175781 C 1.820312 -183.132812 1.820312 -162.632812 1.367188 -142.585938 C 1.367188 -133.476562 1.367188 -124.820312 1.367188 -115.710938 Z M 54.667969 -133.019531 C 53.300781 -155.34375 51.476562 -177.210938 50.109375 -199.078125 C 68.789062 -198.621094 79.265625 -181.765625 79.722656 -170.832031 C 80.632812 -149.421875 67.421875 -135.300781 54.667969 -133.019531 Z M 12.300781 -84.734375 C 12.753906 -83.367188 13.210938 -82 13.667969 -80.175781 C 15.035156 -73.34375 16.398438 -66.054688 18.222656 -58.765625 C 20.042969 -52.84375 24.601562 -49.199219 29.609375 -46.011719 C 30.976562 -45.554688 31.886719 -43.734375 32.800781 -42.820312 C 30.976562 -42.367188 28.699219 -41 27.789062 -41.457031 C 23.6875 -43.734375 19.132812 -45.554688 16.855469 -49.199219 C 8.65625 -59.675781 8.65625 -71.976562 10.933594 -84.277344 C 11.390625 -84.277344 11.84375 -84.734375 12.300781 -84.734375 Z M 84.277344 -150.789062 C 91.109375 -166.277344 88.832031 -180.855469 80.632812 -194.976562 C 81.089844 -195.433594 81.542969 -195.886719 81.542969 -195.886719 C 83.367188 -195.433594 85.1875 -194.976562 86.097656 -194.066406 C 95.210938 -182.222656 97.03125 -169.011719 91.109375 -155.34375 C 90.199219 -153.066406 88.832031 -150.332031 84.277344 -150.789062 Z M 9.566406 -210.464844 C 10.476562 -220.488281 13.667969 -229.144531 22.777344 -234.609375 C 24.144531 -235.519531 25.511719 -235.976562 27.332031 -236.429688 C 28.246094 -236.429688 29.15625 -235.519531 30.066406 -235.066406 C 29.609375 -234.609375 29.609375 -233.242188 28.699219 -232.785156 C 20.5 -226.863281 15.945312 -219.121094 15.488281 -208.644531 C 15.035156 -206.363281 13.210938 -204.085938 12.300781 -201.808594 C 11.390625 -204.085938 10.476562 -206.820312 9.566406 -209.097656 C 9.566406 -209.554688 9.566406 -210.007812 9.566406 -210.464844 Z M 9.566406 -210.464844 "/></g></g></g></svg>